<svg width="32" height="32" viewBox="0 0 32 32" fill="none" xmlns="http://www.w3.org/2000/svg">
<rect x="0.5" y="0.5" width="31" height="31" stroke="#0c0a09"/>
<path d="M12.2656 13.877C12.8561 13.9988 13.4415 14.1541 14.0186 14.3438L16.9941 15.3213C19.2582 16.0653 21.6522 16.2867 24 15.9844V12.25L27.1758 11.2676V15.2988L28.7998 14.8877V12.0156L32 10.9844V32.4004H28.7998V18.4355L27.1758 18.8477V32.4004H24.0527C23.954 31.4885 24 30.37 24 29.2256V19.3887C21.2391 19.6392 18.4205 19.338 15.832 18.4873L15.334 18.3242C14.9344 18.1929 14.5293 18.0749 14.1201 17.9697L19.1572 29.0908C19.7269 30.4016 21.3043 31.6685 23.2324 31.9307V32.4004H10.2607V31.9307C12.364 31.9307 14.5991 30.7078 13.9424 29.1787L8.67285 17.3369C6.66253 17.3727 4.65887 17.6996 2.77246 18.3174L0 19.2246V15.6562L6.18555 2H6.88672L12.2656 13.877ZM0.856445 15.3965L4.08984 14.3379C5.05187 14.0229 6.03665 13.8035 7.03027 13.6768L4.34473 7.63672L0.856445 15.3965Z" fill="#0c0a09"/>
</svg>
